<?xml version="1.0" encoding="UTF-8"?>
<svg version="1.1" xmlns="http://www.w3.org/2000/svg" width="512" height="512">
<path d="M0 0 C0.78173284 -0.00495952 1.56346568 -0.00991903 2.36888739 -0.01502883 C4.98625018 -0.02797387 7.60310189 -0.0196038 10.2204771 -0.01129913 C12.11680341 -0.01618855 14.01312673 -0.0223786 15.90944499 -0.02975702 C21.1190921 -0.0461732 26.32858805 -0.04383517 31.538252 -0.03838205 C37.1573419 -0.03571393 42.77639132 -0.0502396 48.3954649 -0.06247711 C59.40356719 -0.08354263 70.41161683 -0.08807131 81.4197369 -0.08628923 C90.36685993 -0.08498214 99.31396652 -0.08878303 108.26108646 -0.09621429 C110.83728542 -0.09831347 113.41348437 -0.10041107 115.98968333 -0.10250711 C117.27189211 -0.10355064 118.55410088 -0.10459417 119.87516447 -0.10566932 C137.23979957 -0.1192046 154.60442357 -0.12679495 171.96906281 -0.12234497 C172.64806423 -0.12217302 173.32706565 -0.12200106 174.02664288 -0.1218239 C177.46804014 -0.12093501 180.9094374 -0.1199902 184.35083465 -0.11902589 C185.03429854 -0.11883485 185.71776243 -0.11864382 186.42193735 -0.118447 C187.80406752 -0.11805991 189.18619768 -0.11766958 190.56832784 -0.11727602 C212.07210642 -0.1113066 233.57577736 -0.12674194 255.07953167 -0.15888214 C279.24345805 -0.19496776 303.40729504 -0.21424682 327.57125586 -0.20934343 C340.36392644 -0.20709794 353.15649033 -0.21235364 365.9491396 -0.23723602 C376.84024268 -0.25823926 387.73118057 -0.26185075 398.62229041 -0.24293643 C404.17899472 -0.23377261 409.73539095 -0.2326557 415.29207134 -0.25329208 C420.38055563 -0.27198066 425.46847904 -0.26752198 430.55694183 -0.24474627 C432.3960647 -0.2405552 434.23523039 -0.24477751 436.07430802 -0.25834221 C446.28523801 -0.32851681 455.49725692 -0.35286707 463.57369643 6.79035044 C470.36849245 14.19754195 470.41855447 21.81876263 470.37701702 31.34400177 C470.38310812 32.65374739 470.38919923 33.96349302 470.39547491 35.3129279 C470.41184842 38.93777609 470.40956184 42.56240642 470.40409994 46.18727863 C470.40142652 50.10083922 470.41596744 54.01434216 470.428195 57.92787933 C470.44923841 65.59116468 470.45379046 73.25437436 470.45200711 80.91768519 C470.45069887 87.14789604 470.4545068 93.37808331 470.46193218 99.60828972 C470.46403141 101.40372807 470.46612901 103.19916642 470.468225 104.99460477 C470.46979029 106.33512326 470.46979029 106.33512326 470.47138721 107.70272293 C470.49028538 124.60081909 470.48924075 141.49887182 470.48241788 158.39697417 C470.47684342 173.84807319 470.49766445 189.29900635 470.53077835 204.75006662 C470.56453076 220.62250498 470.5796817 236.49486392 470.57506132 252.36733884 C470.57281811 261.2755789 470.578038 270.1836657 470.60295391 279.09187508 C470.62398714 286.67638976 470.62753909 294.26066714 470.60865432 301.84519164 C470.59950863 305.712872 470.59831705 309.58011014 470.61900997 313.44775581 C470.64122236 317.64593604 470.62447328 321.84307814 470.6040678 326.0412674 C470.61658565 327.25635855 470.6291035 328.4714497 470.64200068 329.72336179 C470.55701235 337.88548809 469.07231715 344.69919687 463.57536745 350.99481183 C457.75646677 356.25090968 451.58047996 357.83476854 443.96521568 357.76622009 C443.18348284 357.77117961 442.40175 357.77613912 441.59632829 357.78124893 C438.97896551 357.79419396 436.3621138 357.78582389 433.74473858 357.77751923 C431.84841227 357.78240865 429.95208895 357.78859869 428.0557707 357.79597712 C422.84612358 357.81239329 417.63662764 357.81005526 412.42696369 357.80460215 C406.80787378 357.80193402 401.18882436 357.81645969 395.56975079 357.8286972 C384.56164849 357.84976273 373.55359885 357.8542914 362.54547878 357.85250932 C353.59835575 357.85120223 344.65124916 357.85500312 335.70412922 357.86243439 C333.12793026 357.86453356 330.55173131 357.86663116 327.97553235 357.86872721 C326.69332358 357.86977073 325.4111148 357.87081426 324.09005121 357.87188941 C306.72541611 357.88542469 289.36079211 357.89301504 271.99615288 357.88856506 C271.31715145 357.88839311 270.63815003 357.88822115 269.93857281 357.88804399 C266.49717554 357.88715511 263.05577829 357.88621029 259.61438104 357.88524598 C258.93091714 357.88505495 258.24745325 357.88486391 257.54327833 357.88466709 C256.16114817 357.88428 254.77901801 357.88388967 253.39688785 357.88349611 C231.89310927 357.87752669 210.38943832 357.89296203 188.88568401 357.92510223 C164.72175763 357.96118785 140.55792065 357.98046691 116.39395982 357.97556353 C103.60128924 357.97331803 90.80872535 357.97857373 78.01607609 358.00345612 C67.12497301 358.02445936 56.23403512 358.02807084 45.34292527 358.00915653 C39.78622096 357.9999927 34.22982473 357.9988758 28.67314434 358.01951218 C23.58466005 358.03820075 18.49673665 358.03374207 13.40827385 358.01096636 C11.56915098 358.00677529 9.72998529 358.01099761 7.89090767 358.0245623 C-2.32002232 358.09473691 -11.53204124 358.11908716 -19.60848075 350.97586966 C-26.40327677 343.56867814 -26.45333879 335.94745747 -26.41180134 326.42221832 C-26.41789244 325.1124727 -26.42398355 323.80272708 -26.43025923 322.45329219 C-26.44663274 318.828444 -26.44434615 315.20381367 -26.43888426 311.57894146 C-26.43621084 307.66538087 -26.45075176 303.75187794 -26.46297932 299.83834076 C-26.48402272 292.17505541 -26.48857478 284.51184573 -26.48679143 276.8485349 C-26.48548319 270.61832405 -26.48929111 264.38813679 -26.4967165 258.15793037 C-26.49881573 256.36249203 -26.50091333 254.56705368 -26.50300932 252.77161533 C-26.50405285 251.87793633 -26.50509637 250.98425734 -26.50617152 250.06349716 C-26.52506969 233.16540101 -26.52402507 216.26734827 -26.5172022 199.36924592 C-26.51162774 183.9181469 -26.53244877 168.46721374 -26.56556267 153.01615348 C-26.59931508 137.14371512 -26.61446602 121.27135617 -26.60984564 105.39888126 C-26.60760243 96.49064119 -26.61282232 87.58255439 -26.63773823 78.67434502 C-26.65877146 71.08983033 -26.66232341 63.50555295 -26.64343864 55.92102846 C-26.63429295 52.0533481 -26.63310137 48.18610995 -26.65379429 44.31846428 C-26.67600667 40.12028405 -26.6592576 35.92314195 -26.63885212 31.7249527 C-26.65136997 30.50986155 -26.66388782 29.2947704 -26.67678499 28.0428583 C-26.59179667 19.880732 -25.10710147 13.06702322 -19.61015177 6.77140826 C-13.79125109 1.51531041 -7.61526428 -0.06854844 0 0 Z M4.98260784 31.38311005 C4.98260784 128.73311005 4.98260784 226.08311005 4.98260784 326.38311005 C148.20260784 326.38311005 291.42260784 326.38311005 438.98260784 326.38311005 C438.98260784 229.03311005 438.98260784 131.68311005 438.98260784 31.38311005 C295.76260784 31.38311005 152.54260784 31.38311005 4.98260784 31.38311005 Z " fill="#000000" transform="translate(34.0173921585083,26.61688995361328)"/>
<path d="M0 0 C1.13244141 -0.01933594 2.26488281 -0.03867188 3.43164062 -0.05859375 C8.36416822 -0.02952759 11.58118343 0.00813875 15.8125 2.66796875 C17.98760188 6.34330832 18.19831575 9.40665478 18.125 13.5625 C18.05474826 19.35016247 18.70242145 23.07295658 22.5625 27.625 C26.14710368 30.08403812 29.70588265 30.21356606 33.9609375 30.14453125 C38.64548134 29.20902925 41.41857966 26.04007431 44.5625 22.625 C48.07347179 18.81308777 48.07347179 18.81308777 51 17.6875 C55.70808355 17.57266869 58.75578933 20.69511429 62.078125 23.734375 C63.32831004 24.9423597 64.57299068 26.15606345 65.8125 27.375 C66.44929687 27.97054687 67.08609375 28.56609375 67.7421875 29.1796875 C70.82333685 32.20839176 72.4064031 34.11047852 73.68359375 38.3203125 C73.54451674 42.11576903 73.03468318 43.128704 70.375 45.75 C69.40626953 46.76126953 69.40626953 46.76126953 68.41796875 47.79296875 C67.80566406 48.39753906 67.19335938 49.00210938 66.5625 49.625 C62.93023883 53.35284699 61.75185288 56.22898222 61.40234375 61.34375 C61.68737614 65.40372352 63.05060907 67.40462702 65.5625 70.625 C71.0087469 74.05710234 75.69968854 74.07359079 81.90429688 74.15234375 C87.1079414 74.31878205 87.1079414 74.31878205 89.26147461 75.76953125 C91.13231368 78.43764476 90.95094741 80.48196146 90.9609375 83.71875 C90.96480469 84.91371094 90.96867188 86.10867187 90.97265625 87.33984375 C90.95525391 89.21349609 90.95525391 89.21349609 90.9375 91.125 C90.94910156 92.37410156 90.96070313 93.62320313 90.97265625 94.91015625 C90.96878906 96.10511719 90.96492187 97.30007812 90.9609375 98.53125 C90.95755371 99.62759766 90.95416992 100.72394531 90.95068359 101.85351562 C90.5625 104.625 90.5625 104.625 89.25927734 106.48266602 C86.40789128 108.40232578 83.13895977 108.02738926 79.8125 108.0625 C73.69088744 108.29539857 69.31363152 108.53681706 64.5625 112.625 C62.00946395 116.0556422 61.30753589 118.80504728 61.4375 123 C62.27573919 128.59454022 65.66293128 131.77640603 69.5625 135.625 C73.53943786 139.70136131 73.53943786 139.70136131 73.640625 143.75390625 C72.71928839 149.13796707 68.60214382 152.37715389 64.8125 156 C64.09578125 156.72316406 63.3790625 157.44632813 62.640625 158.19140625 C56.56854131 164.14070883 56.56854131 164.14070883 51.5625 164.625 C46.92730777 162.74586802 43.79742825 158.94459304 40.4296875 155.3671875 C37.01933631 152.18514433 33.28293265 152.28932324 28.8515625 152.33984375 C25.29605576 152.78276524 23.21411892 154.29674924 20.5625 156.625 C17.67695263 160.79962352 18.20763269 165.81690438 18.171875 170.69335938 C18.00344651 175.68539253 17.11189838 178.13084085 13.5625 181.625 C10.78515625 182.27197266 10.78515625 182.27197266 7.625 182.2890625 C6.48289062 182.29550781 5.34078125 182.30195313 4.1640625 182.30859375 C2.97554688 182.28925781 1.78703125 182.26992188 0.5625 182.25 C-0.62601562 182.26933594 -1.81453125 182.28867187 -3.0390625 182.30859375 C-4.75222656 182.29892578 -4.75222656 182.29892578 -6.5 182.2890625 C-7.54285156 182.28342285 -8.58570313 182.2777832 -9.66015625 182.27197266 C-12.4375 181.625 -12.4375 181.625 -14.77929688 179.31958008 C-17.28970749 175.24016282 -16.95170197 171.22255112 -16.92578125 166.59570312 C-17.03300272 161.45394617 -18.11736314 158.54720393 -21.4375 154.625 C-25.45500246 151.86445871 -29.73659413 152.10739123 -34.4375 152.625 C-39.07446803 154.4345485 -42.08530789 158.2614982 -45.375 161.8828125 C-47.84534191 163.96950282 -49.20703507 164.53635919 -52.4375 164.625 C-57.3051387 162.52965884 -60.95572374 158.54483807 -64.6875 154.875 C-65.32429688 154.27945313 -65.96109375 153.68390625 -66.6171875 153.0703125 C-69.69833685 150.04160824 -71.2814031 148.13952148 -72.55859375 143.9296875 C-72.41951674 140.13423097 -71.90968318 139.121296 -69.25 136.5 C-68.60417969 135.82582031 -67.95835937 135.15164062 -67.29296875 134.45703125 C-66.68066406 133.85246094 -66.06835938 133.24789062 -65.4375 132.625 C-61.80523883 128.89715301 -60.62685288 126.02101778 -60.27734375 120.90625 C-60.56237614 116.84627648 -61.92560907 114.84537298 -64.4375 111.625 C-69.8837469 108.19289766 -74.57468854 108.17640921 -80.77929688 108.09765625 C-85.9829414 107.93121795 -85.9829414 107.93121795 -88.13647461 106.48046875 C-90.00731368 103.81235524 -89.82594741 101.76803854 -89.8359375 98.53125 C-89.83980469 97.33628906 -89.84367188 96.14132813 -89.84765625 94.91015625 C-89.83605469 93.66105469 -89.82445312 92.41195312 -89.8125 91.125 C-89.82410156 89.87589844 -89.83570313 88.62679687 -89.84765625 87.33984375 C-89.84378906 86.14488281 -89.83992187 84.94992188 -89.8359375 83.71875 C-89.83255371 82.62240234 -89.82916992 81.52605469 -89.82568359 80.39648438 C-89.4375 77.625 -89.4375 77.625 -88.13427734 75.76733398 C-85.28289128 73.84767422 -82.01395977 74.22261074 -78.6875 74.1875 C-72.56588744 73.95460143 -68.18863152 73.71318294 -63.4375 69.625 C-60.88446395 66.1943578 -60.18253589 63.44495272 -60.3125 59.25 C-61.15073919 53.65545978 -64.53793128 50.47359397 -68.4375 46.625 C-72.41443786 42.54863869 -72.41443786 42.54863869 -72.515625 38.49609375 C-71.59428839 33.11203293 -67.47714382 29.87284611 -63.6875 26.25 C-62.97078125 25.52683594 -62.2540625 24.80367187 -61.515625 24.05859375 C-55.44354131 18.10929117 -55.44354131 18.10929117 -50.4375 17.625 C-45.79486433 19.50714959 -42.61352723 23.32650886 -39.20703125 26.8828125 C-36.42550782 29.62135433 -34.49610273 29.82785841 -30.6875 29.9375 C-25.84087364 29.88847343 -23.12337551 28.94228796 -19.4375 25.625 C-16.55722577 21.44363638 -17.08265725 16.4364449 -17.046875 11.55664062 C-16.93628015 8.27873215 -16.46103158 5.68029558 -15.17578125 2.66015625 C-10.57886019 -0.75638565 -5.56042082 -0.09461862 0 0 Z M-32.76171875 62.23828125 C-40.42905492 72.25825662 -44.48582516 82.94803089 -43.4375 95.625 C-42.1012029 104.01649282 -39.33315748 110.70355321 -34.4375 117.625 C-33.77621094 118.58019531 -33.77621094 118.58019531 -33.1015625 119.5546875 C-27.00571896 127.48280772 -17.29339835 133.11493076 -7.4375 134.625 C6.41434505 135.77572441 17.81524056 133.67147956 29.01953125 124.95703125 C38.06811145 116.65902453 43.73365058 105.92345409 44.71875 93.68359375 C45.18531224 82.81658163 41.77838046 73.41296893 35.5625 64.625 C34.90121094 63.66980469 34.90121094 63.66980469 34.2265625 62.6953125 C28.13071896 54.76719228 18.41839835 49.13506924 8.5625 47.625 C-7.6323412 46.27963417 -21.58456419 49.6710268 -32.76171875 62.23828125 Z " fill="#000000" transform="translate(255.4375,114.375)"/>
<path d="M0 0 C0.01458252 0.99854004 0.02916504 1.99708008 0.04418945 3.02587891 C0.10240068 6.74986606 0.17963077 10.47326292 0.26245117 14.19677734 C0.29559363 15.8047524 0.32365854 17.41284081 0.34643555 19.02099609 C0.38017967 21.34000705 0.43250194 23.65798931 0.48828125 25.9765625 C0.49467117 26.68930328 0.5010611 27.40204407 0.50764465 28.13638306 C0.64333968 32.79972147 1.55312666 36.03156308 4 40 C7.37166634 43.05055526 10.02588404 44.27403455 14.5 44.5 C19.00269536 44.25743055 21.67018205 43.17125519 25 40 C29.00118551 32.28687132 28.55812395 23.98111214 28.6875 15.5 C28.72072283 13.99476282 28.75521697 12.48955313 28.79101562 10.984375 C28.87535136 7.32311808 28.94242673 3.66178694 29 0 C38.95813916 3.19925571 46.37339141 9.71292924 51.25 19 C56.24145195 29.15804257 56.98163015 42.23071183 53.4375 53 C48.89907131 63.5310722 41.13782389 71.00878075 31 76 C30.76808752 85.93542508 30.59051522 95.87020458 30.48187828 105.80778694 C30.42973012 110.42263637 30.35903651 115.03563186 30.24560547 119.64941406 C30.13677553 124.10403441 30.07712593 128.55687477 30.05122757 133.01272202 C30.03277878 134.71061106 29.99674715 136.40840472 29.94269943 138.1055336 C29.78590829 143.23382535 29.74423667 148.00374115 31 153 C33.97375368 156.14793648 37.00821527 157.47975718 41 159 C47.89029014 164.95118475 53.05450605 173.05860935 55 182 C55.8376945 195.85629102 55.11913859 206.93582057 45.859375 217.99609375 C41.44269846 222.75608338 37.05375502 226.46586999 31 229 C30.34 229 29.68 229 29 229 C28.98541748 228.07251953 28.97083496 227.14503906 28.95581055 226.18945312 C28.89438849 222.71509192 28.82017084 219.24147547 28.73754883 215.76757812 C28.70450134 214.27028528 28.67640798 212.7728739 28.65356445 211.27539062 C28.60624925 199.7786403 28.60624925 199.7786403 25 189 C21.67018205 185.82874481 19.00269536 184.74256945 14.5 184.5 C10.02588404 184.72596545 7.37166634 185.94944474 4 189 C1.13526632 193.64613951 0.53623482 197.67463103 0.48828125 203.0234375 C0.47033005 203.76961334 0.45237885 204.51578918 0.43388367 205.28457642 C0.38006895 207.6479949 0.34597933 210.01121486 0.3125 212.375 C0.27930128 213.98570454 0.24480928 215.59638298 0.20898438 217.20703125 C0.12435982 221.13787687 0.05741257 225.06866659 0 229 C-10.06977516 225.80169416 -17.03879108 219.77213726 -22.3125 210.6875 C-27.82671353 199.95316434 -28.09736055 189.4438318 -24.96484375 177.953125 C-21.7163963 168.01050853 -15.11193245 159.8029255 -6.0625 154.4375 C-3 153 -3 153 -1 153 C-1 127.59 -1 102.18 -1 76 C-2.98 75.34 -4.96 74.68 -7 74 C-9.6328125 72.01171875 -9.6328125 72.01171875 -12.125 69.6875 C-12.95257813 68.92824219 -13.78015625 68.16898437 -14.6328125 67.38671875 C-23.12892017 58.82051118 -26.35380984 50.01275799 -27.3125 38.125 C-26.87094917 25.24210528 -21.32774497 14.46760772 -12.09375 5.6953125 C-8.6869926 2.93685595 -4.51474574 0 0 0 Z " fill="#000000" transform="translate(92,91)"/>
<path d="M0 0 C0.91989834 -0.00445784 1.83979667 -0.00891569 2.78757071 -0.01350862 C3.80486266 -0.01332426 4.82215461 -0.01313989 5.87027359 -0.01294994 C7.48357351 -0.01846498 7.48357351 -0.01846498 9.12946534 -0.02409142 C12.7576114 -0.03516356 16.38572886 -0.03897806 20.01388931 -0.04278088 C22.60540229 -0.04904283 25.19691437 -0.05568938 27.78842545 -0.0626936 C35.58301171 -0.08246818 43.37759929 -0.09252564 51.17220438 -0.10142139 C54.84142096 -0.10580281 58.51063609 -0.11117001 62.17985153 -0.11641026 C74.37491303 -0.13342381 86.56997362 -0.1479183 98.76504517 -0.155159 C101.93067552 -0.15706894 105.09630586 -0.15898927 108.26193619 -0.16094494 C109.44216234 -0.16167055 109.44216234 -0.16167055 110.64623144 -0.16241082 C123.39408599 -0.17071231 136.14184674 -0.19605063 148.88966033 -0.22852562 C161.97303809 -0.26158412 175.05636816 -0.27960667 188.13978791 -0.28280324 C195.48748606 -0.2849695 202.83504744 -0.293735 210.18270493 -0.31926441 C217.093755 -0.34322111 224.00455499 -0.34680467 230.91563797 -0.33650303 C233.45451805 -0.33600597 235.99341 -0.34237608 238.53225327 -0.35605907 C241.99418331 -0.37367541 245.45521891 -0.36672154 248.91714859 -0.35352612 C250.42970218 -0.36997998 250.42970218 -0.36997998 251.97281241 -0.38676625 C257.71585617 -0.33379529 261.12435515 0.23310581 265.64767838 4.13422108 C270.47874614 9.61813584 270.9979258 12.93961507 270.92892838 20.14984608 C270.42922113 25.45229516 267.89690788 28.00686762 264.08517838 31.44672108 C260.72422857 33.77353248 258.1924764 34.25942844 254.20633698 34.26844215 C253.29203108 34.2729 252.37772519 34.27735784 251.43571305 34.28195077 C250.42979796 34.28176641 249.42388287 34.28158205 248.3874855 34.2813921 C247.31997047 34.28506879 246.25245544 34.28874547 245.15259147 34.29253358 C241.55752449 34.30359091 237.96248639 34.30741772 234.36740494 34.31122303 C231.79707115 34.31748608 229.22673828 34.32413273 226.6564064 34.33113575 C218.93045707 34.35089664 211.20450644 34.36096564 203.47853816 34.36986354 C199.84033474 34.37424683 196.20213278 34.37961352 192.56393051 34.38485241 C180.47005516 34.4018639 168.37618071 34.41635833 156.28229523 34.42360115 C153.14399845 34.42551104 150.00570168 34.42743138 146.86740494 34.42938709 C146.08739655 34.42987083 145.30738815 34.43035457 144.50374314 34.43085297 C131.86655829 34.43915427 119.22946806 34.46449319 106.59232453 34.49696777 C93.61852147 34.53003575 80.64476651 34.54804965 67.67092109 34.55124539 C60.38636262 34.55341068 53.10194217 34.56216199 45.81742477 34.58770657 C38.96545358 34.61167886 32.11373464 34.61524088 25.26173019 34.60494518 C22.74584503 34.60444849 20.22994783 34.61080796 17.71409988 34.62450123 C14.28103528 34.64214234 10.84887041 34.63515138 7.41580582 34.62196827 C6.41881361 34.63293752 5.42182141 34.64390676 4.39461732 34.65520841 C-1.73041533 34.59837251 -5.34386079 33.72561628 -10.35232162 30.13422108 C-15.23998597 24.73206575 -15.70206511 21.27616491 -15.63357162 14.11859608 C-15.13170187 8.79320032 -12.59846786 6.23201657 -8.72732162 2.82172108 C-5.50874334 0.53483651 -3.88778755 0.00871423 0 0 Z " fill="#000000" transform="translate(128.35232162475586,450.86577892303467)"/>
<path d="M0 0 C0.91349685 0.00092179 1.82699369 0.00184359 2.76817226 0.00279331 C3.81290203 0.00141865 4.8576318 0.00004398 5.93402004 -0.00137234 C7.08991634 0.00222294 8.24581264 0.00581821 9.43673611 0.00952244 C10.64632488 0.00937641 11.85591366 0.00923038 13.10215664 0.00907993 C16.42846172 0.0096589 19.75470541 0.0146881 23.08099961 0.02165389 C26.55369751 0.02788805 30.02639615 0.02849128 33.49909878 0.0296793 C40.07936014 0.03279243 46.65960497 0.04100557 53.23985904 0.05102879 C60.72945933 0.06219049 68.21906039 0.06770052 75.70866692 0.07272422 C91.11925361 0.0831882 106.52982378 0.1007873 121.94039822 0.12304783 C123.51327046 3.09044821 125.08258021 6.05971931 126.65133572 9.02929783 C127.0895364 9.85590916 127.52773708 10.68252048 127.97921658 11.53418064 C130.95729785 17.17686094 133.8114796 22.86773408 136.56539822 28.62304783 C136.90611355 29.33017918 137.24682888 30.03731052 137.59786892 30.76587009 C138.98740826 33.72928642 139.94039822 35.8089431 139.94039822 39.12304783 C87.14039822 39.12304783 34.34039822 39.12304783 -20.05960178 39.12304783 C-19.11647466 34.40741219 -17.59389859 30.70323054 -15.49710178 26.45117283 C-15.14575169 25.72814976 -14.79440159 25.00512669 -14.43240452 24.26019382 C-13.6920275 22.73936276 -12.9488885 21.21987355 -12.20315647 19.70166111 C-11.05801231 17.3698112 -9.92139434 15.03395663 -8.78616428 12.69726658 C-8.06530172 11.21916214 -7.34396418 9.74128923 -6.62210178 8.26367283 C-6.28041965 7.56268467 -5.93873753 6.86169651 -5.58670139 6.13946629 C-2.6442813 0.15797863 -2.6442813 0.15797863 0 0 Z " fill="#000000" transform="translate(196.05960178375244,397.8769521713257)"/>
<path d="M0 0 C1.09130722 -0.0127597 2.18261444 -0.02551941 3.30699158 -0.03866577 C5.08197777 -0.04200424 5.08197777 -0.04200424 6.89282227 -0.04541016 C8.7090786 -0.05539536 8.7090786 -0.05539536 10.56202698 -0.06558228 C13.12678504 -0.07572288 15.69156957 -0.08039886 18.25634766 -0.08007812 C22.18964916 -0.08445089 26.12182888 -0.12075705 30.05493164 -0.15869141 C32.542558 -0.16455918 35.0301897 -0.16852884 37.51782227 -0.17041016 C39.28977211 -0.19196671 39.28977211 -0.19196671 41.09751892 -0.21395874 C42.1919783 -0.20780548 43.28643768 -0.20165222 44.4140625 -0.1953125 C45.37843735 -0.19816254 46.34281219 -0.20101257 47.33641052 -0.20394897 C49.77172852 0.29052734 49.77172852 0.29052734 51.58331299 1.9352417 C53.10015578 4.94142764 53.14597258 7.0951158 53.14404297 10.4609375 C53.15338615 12.33406113 53.15338615 12.33406113 53.16291809 14.24502563 C53.15422398 15.60655106 53.14490533 16.96807262 53.13500977 18.32958984 C53.13449056 19.73481241 53.13501059 21.14003571 53.13652039 22.54525757 C53.13643071 25.49252149 53.12601777 28.43951167 53.10791016 31.38671875 C53.08534837 35.13885446 53.0846566 38.89058608 53.0914278 42.64277077 C53.09479494 45.54783629 53.08808448 48.45281215 53.07829857 51.35786057 C53.07448389 52.73955183 53.07328262 54.12125316 53.07488441 55.50294876 C53.07738101 68.39500867 52.46073069 79.60648989 43.58422852 89.61474609 C36.36797851 96.2866669 28.66847994 97.6570947 19.16625977 97.57177734 C11.47269032 96.93433546 5.12612802 93.76944777 -0.22827148 88.29052734 C-5.20968971 81.58850784 -7.47640728 75.46575586 -7.48706055 67.03173828 C-7.49056519 66.33181763 -7.49406982 65.63189697 -7.49768066 64.9107666 C-7.50642801 62.61537535 -7.50067641 60.32029629 -7.49389648 58.02490234 C-7.49524454 56.42401063 -7.49718625 54.82311932 -7.49969482 53.222229 C-7.50263607 49.87679117 -7.49837842 46.53146049 -7.48901367 43.18603516 C-7.47758267 38.89287739 -7.48420782 34.59996869 -7.4961586 30.30681992 C-7.50337277 27.0057791 -7.50109197 23.70479775 -7.49590302 20.40375519 C-7.4945672 18.8200706 -7.49621187 17.23638065 -7.50086212 15.65270233 C-7.50592417 13.44556774 -7.49822374 11.23884227 -7.48706055 9.03173828 C-7.48546936 7.77520447 -7.48387817 6.51867065 -7.48223877 5.22406006 C-7.03048274 0.00590337 -4.61595884 0.0365203 0 0 Z " fill="#000000" transform="translate(383.228271484375,222.70947265625)"/>
<path d="M0 0 C8.25 0 16.5 0 25 0 C31.88448954 12.79933266 38.20355307 25.67495648 44 39 C42.64793888 39.91976947 41.29321645 40.83562697 39.9375 41.75 C39.18339844 42.26046875 38.42929687 42.7709375 37.65234375 43.296875 C35 45 35 45 31.24780273 46.23535156 C29.34125391 47.19172345 29.34125391 47.19172345 28 49 C26.90452503 54.13297614 27.04514773 59.26398413 27.09765625 64.484375 C27.08827094 66.02567654 27.07581299 67.56696219 27.06040955 69.10821533 C27.02816789 73.15931773 27.03763073 77.20928876 27.05578613 81.26043701 C27.06694004 85.39640714 27.03864472 89.53208688 27.01367188 93.66796875 C26.97050976 101.7789706 26.97505158 109.88892135 27 118 C17.76 118 8.52 118 -1 118 C-1 95.23 -1 72.46 -1 49 C-2.65 48.34 -4.3 47.68 -6 47 C-8.12196433 45.82320172 -10.22580385 44.61325925 -12.3125 43.375 C-13.38113281 42.74335938 -14.44976562 42.11171875 -15.55078125 41.4609375 C-16.35902344 40.97882813 -17.16726563 40.49671875 -18 40 C-17.44116834 35.48484175 -16.26352677 32.05228995 -14.19921875 28.0078125 C-13.35133789 26.33138672 -13.35133789 26.33138672 -12.48632812 24.62109375 C-11.89271484 23.46738281 -11.29910156 22.31367187 -10.6875 21.125 C-10.10548828 19.97902344 -9.52347656 18.83304688 -8.92382812 17.65234375 C-7.83010787 15.49958519 -6.73309057 13.34849596 -5.6315918 11.19970703 C-3.73337179 7.47711667 -1.86873852 3.73747703 0 0 Z " fill="#000000" transform="translate(393,91)"/>
</svg>
