<?xml version="1.0" encoding="UTF-8"?>
<svg version="1.1" xmlns="http://www.w3.org/2000/svg" width="512" height="512">
<path d="M0 0 C6.08652132 4.94529857 7.87218704 11.54680541 9.75 18.875 C9.97042969 19.70193359 10.19085938 20.52886719 10.41796875 21.38085938 C10.95416077 23.39740762 11.47834175 25.41714325 12 27.4375 C13.61068359 27.52837891 13.61068359 27.52837891 15.25390625 27.62109375 C16.69011315 27.70557651 18.12631058 27.79022054 19.5625 27.875 C20.26697266 27.91431641 20.97144531 27.95363281 21.69726562 27.99414062 C26.1798541 28.26268279 30.56293497 28.74366197 35 29.4375 C35.24645264 28.88288086 35.49290527 28.32826172 35.74682617 27.75683594 C36.88011245 25.2273727 38.03352626 22.70758845 39.1875 20.1875 C39.76854492 18.87845703 39.76854492 18.87845703 40.36132812 17.54296875 C43.33992228 11.09345082 46.38988292 7.35828508 53 4.4375 C60.16914293 3.20255675 65.83222351 5.61810833 72.1875 8.6875 C73.05052734 9.08324219 73.91355469 9.47898437 74.80273438 9.88671875 C88.25829942 16.16666877 88.25829942 16.16666877 91.28515625 22.36328125 C94.28253414 31.06059086 91.30897026 37.7395325 87.5 45.625 C86.033058 48.58041202 84.53681043 51.51783266 83 54.4375 C83.61496338 54.73100342 84.22992676 55.02450684 84.86352539 55.3269043 C87.42538027 56.65862386 89.29950432 58.31209404 91.4375 60.25 C92.17871094 60.91644531 92.91992188 61.58289063 93.68359375 62.26953125 C96.17914674 64.60516685 98.59597626 67.00803685 101 69.4375 C102.07378906 68.87160156 103.14757812 68.30570312 104.25390625 67.72265625 C105.68982672 66.98123326 107.12604037 66.24037787 108.5625 65.5 C109.61920898 64.94022461 109.61920898 64.94022461 110.69726562 64.36914062 C115.86333948 61.72658672 120.55048158 59.95326161 126.4765625 60.78515625 C127.18554688 61.02105469 127.89453125 61.25695312 128.625 61.5 C129.33914063 61.71785156 130.05328125 61.93570313 130.7890625 62.16015625 C137.50218526 66.03858583 140.26215248 73.56106416 143.3125 80.3125 C143.9940918 81.74529297 143.9940918 81.74529297 144.68945312 83.20703125 C147.67364044 89.74980585 149.09285985 94.59303171 147.4765625 101.7578125 C143.00283474 111.23883188 132.05825569 114.48902957 123 118.4375 C123.99 130.3175 123.99 130.3175 125 142.4375 C130.32145417 143.58797695 130.32145417 143.58797695 135.64892578 144.70996094 C142.84255946 146.33372077 147.66955894 149.34280517 152 155.4375 C155.4418795 162.32125901 152.26113859 171.7505372 150.3125 178.6875 C150.06822266 179.64140625 149.82394531 180.5953125 149.57226562 181.578125 C147.65235892 188.57727856 145.40326384 193.06312988 139.3125 197.3125 C128.71750807 200.91079915 118.23671655 196.55981006 108 193.4375 C107.63068359 194.74847656 107.63068359 194.74847656 107.25390625 196.0859375 C105.92005448 199.65118615 104.26378646 202.06492579 101.9375 205.0625 C98.29696719 209.29890675 98.29696719 209.29890675 97 214.4375 C98.52812122 216.75184993 100.03487196 218.77023067 101.8125 220.875 C106.39883826 226.40277801 109.60148114 230.75268502 109.2890625 238.3359375 C108.33583459 245.26616203 104.89954141 248.82022772 99.4375 253 C97.30055375 254.49197702 95.15473814 255.97133553 93 257.4375 C92.07316406 258.13875 91.14632812 258.84 90.19140625 259.5625 C84.35710754 263.76251765 79.89729125 265.41794939 72.65625 264.9140625 C62.80207952 263.14610838 57.41189613 252.03265679 52 244.4375 C50.83082031 244.71464844 49.66164063 244.99179687 48.45703125 245.27734375 C46.90886477 245.64327401 45.36068709 246.00915693 43.8125 246.375 C42.65911133 246.64860352 42.65911133 246.64860352 41.48242188 246.92773438 C37.66559908 247.82870113 33.85343574 248.70387997 30 249.4375 C29.93006836 250.03699463 29.86013672 250.63648926 29.78808594 251.25415039 C29.45800086 254.00494779 29.10420044 256.75220794 28.75 259.5 C28.64042969 260.44294922 28.53085937 261.38589844 28.41796875 262.35742188 C27.45029146 269.66593194 25.94219884 274.88759434 20.1875 279.875 C11.0517612 284.40399391 -5.2607113 281.7039426 -15 279.4375 C-20.64410485 276.23032042 -23.92761443 272.65465672 -26 266.4375 C-26.03759766 264.53979492 -26.03759766 264.53979492 -25.9140625 262.41796875 C-25.87023437 261.64259766 -25.82640625 260.86722656 -25.78125 260.06835938 C-25.7296875 259.26205078 -25.678125 258.45574219 -25.625 257.625 C-25.58117187 256.83029297 -25.53734375 256.03558594 -25.4921875 255.21679688 C-25.23484218 250.89553997 -24.80961213 246.69825537 -24 242.4375 C-25.216875 242.23125 -26.43375 242.025 -27.6875 241.8125 C-34.21188887 240.39506088 -40.04013248 237.36677028 -46 234.4375 C-46.42821045 234.8814209 -46.8564209 235.3253418 -47.29760742 235.78271484 C-49.25289714 237.80058439 -51.21998599 239.80655083 -53.1875 241.8125 C-53.86103516 242.51117188 -54.53457031 243.20984375 -55.22851562 243.9296875 C-56.21948242 244.93515625 -56.21948242 244.93515625 -57.23046875 245.9609375 C-58.13381958 246.887854 -58.13381958 246.887854 -59.05541992 247.83349609 C-61.85851272 250.14565173 -64.60243199 251.38645839 -68.24609375 251.51953125 C-68.96925781 251.43058594 -69.69242188 251.34164062 -70.4375 251.25 C-71.15808594 251.17394531 -71.87867188 251.09789062 -72.62109375 251.01953125 C-79.83785931 249.25385298 -84.15906675 244.70679577 -89.1875 239.5625 C-89.89841797 238.85480469 -90.60933594 238.14710938 -91.34179688 237.41796875 C-96.80596876 231.89725322 -100.73013707 227.53338802 -101 219.4375 C-99.49461375 208.8007577 -90.89574874 201.86347733 -83 195.4375 C-83.55429688 194.41269531 -84.10859375 193.38789063 -84.6796875 192.33203125 C-85.41159763 190.97142909 -86.14336071 189.61074782 -86.875 188.25 C-87.23980469 187.57646484 -87.60460937 186.90292969 -87.98046875 186.20898438 C-88.51220703 185.21801758 -88.51220703 185.21801758 -89.0546875 184.20703125 C-89.54171143 183.30368042 -89.54171143 183.30368042 -90.03857422 182.38208008 C-91.15989816 180.11408994 -92.08530199 177.79542775 -93 175.4375 C-93.69561035 175.45844727 -94.3912207 175.47939453 -95.10791016 175.50097656 C-98.28012458 175.5844698 -101.45210731 175.63626529 -104.625 175.6875 C-105.71941406 175.72101563 -106.81382812 175.75453125 -107.94140625 175.7890625 C-114.32511563 175.8664408 -118.15225048 175.73327804 -123 171.4375 C-123.7425 170.839375 -124.485 170.24125 -125.25 169.625 C-130.12533467 163.53083166 -129.64107922 154.88301942 -130 147.4375 C-130.06574219 146.28765625 -130.13148438 145.1378125 -130.19921875 143.953125 C-130.4794529 135.56542698 -129.57197226 131.44243859 -123.9375 125.125 C-115.81545829 120.45914625 -105.12054967 120.9434575 -96 120.4375 C-95.97421875 119.86644531 -95.9484375 119.29539062 -95.921875 118.70703125 C-95.39903296 111.23276662 -93.38525846 104.51561579 -91 97.4375 C-91.94101563 96.86902344 -92.88203125 96.30054687 -93.8515625 95.71484375 C-108.3138779 86.8097442 -108.3138779 86.8097442 -112 79.4375 C-112.23828125 77.3359375 -112.23828125 77.3359375 -112.3125 74.8125 C-112.34988281 73.99523437 -112.38726562 73.17796875 -112.42578125 72.3359375 C-111.35315514 65.03420746 -106.50845852 58.96341914 -102.1875 53.1875 C-101.69185547 52.49398437 -101.19621094 51.80046875 -100.68554688 51.0859375 C-96.79967272 45.86476296 -93.0116227 42.32692705 -86.4453125 40.87109375 C-76.5356452 40.88777669 -70.29302788 45.86724986 -63.04296875 52.1796875 C-61.12175874 53.62135558 -61.12175874 53.62135558 -59.04296875 53.375 C-56.35429071 52.14118981 -54.37730846 50.47801467 -52.125 48.5625 C-48.52859812 45.59387241 -45.28897666 43.24338491 -41 41.4375 C-42.1683709 34.86298153 -42.1683709 34.86298153 -44.125 28.5 C-45.67319881 23.08130415 -46.16658789 17.37807277 -44.0546875 12.0546875 C-40.2647853 5.59516866 -35.45993424 3.35101729 -28.41308594 1.39428711 C-8.0710245 -3.89986478 -8.0710245 -3.89986478 0 0 Z M-2 75.4375 C-2.86625 76.015 -3.7325 76.5925 -4.625 77.1875 C-14.2863087 86.34031877 -19.92365967 99.25896352 -20.3125 112.5 C-20.20967749 121.9468178 -17.06107671 130.67958208 -11.7578125 138.4375 C-11 140.4375 -11 140.4375 -11.72119141 142.6574707 C-13.20037125 145.87309135 -14.90480704 148.86873243 -16.703125 151.91796875 C-17.06339783 152.53086258 -17.42367065 153.14375641 -17.79486084 153.77522278 C-18.94332588 155.7270834 -20.09661854 157.67604143 -21.25 159.625 C-22.00942468 160.91453097 -22.76854199 162.20424301 -23.52734375 163.49414062 C-23.89879517 164.12426056 -24.27024658 164.75438049 -24.6529541 165.40359497 C-25.3916633 166.6579621 -26.12857777 167.91338799 -26.86364746 169.16989136 C-28.49214524 171.94243054 -30.14772935 174.66131071 -31.91992188 177.34619141 C-34.35553055 181.0650702 -35.89040068 183.68777708 -36.5390625 188.125 C-34.02791446 193.52970442 -29.44318673 195.59594959 -24.375 198.4375 C-23.38886719 199.03433594 -22.40273437 199.63117188 -21.38671875 200.24609375 C-17.28193082 202.61908864 -13.92579321 204.30292593 -9.2109375 204.98828125 C-3.88956687 202.41822755 -1.96567667 197.7018991 0.75 192.625 C1.6464624 191.01818359 1.6464624 191.01818359 2.56103516 189.37890625 C4.39683341 186.0771038 6.19915045 182.75846392 8 179.4375 C9.1148163 177.42186379 10.23189017 175.40747402 11.3515625 173.39453125 C13.92635421 168.75577419 16.47453013 164.10327818 19 159.4375 C19.93199219 159.48390625 20.86398437 159.5303125 21.82421875 159.578125 C36.5991506 159.99642439 49.0302017 156.53523457 60.25 146.40625 C70.36217691 135.83442868 74.5252197 123.47337581 74.32421875 109.125 C73.77767387 102.90887515 72.60117511 95.39874231 68.36328125 90.57421875 C67.91339844 90.19910156 67.46351563 89.82398437 67 89.4375 C62.60310115 95.36312196 58.70641084 101.50355021 55 107.875 C49.0534279 118.08051243 49.0534279 118.08051243 46.125 122.8125 C45.61195313 123.64523438 45.09890625 124.47796875 44.5703125 125.3359375 C42.40455036 128.2343953 40.16373194 129.97200722 36.8125 131.3125 C29.44709969 131.63985112 23.24960673 127.61420877 17.125 124 C16.47031738 123.61666504 15.81563477 123.23333008 15.14111328 122.83837891 C10.25239123 119.8610369 7.59364753 117.68487995 6.125 112.125 C5.8367975 103.62302627 12.11532828 96.00214376 16.375 89 C17.035 87.90623047 17.695 86.81246094 18.375 85.68554688 C21.18781578 81.03207376 24.01736822 76.40167426 26.9765625 71.83984375 C29.2555771 68.66751644 29.2555771 68.66751644 29 65.4375 C17.2722411 64.6423977 7.24561175 68.33749435 -2 75.4375 Z " fill="#000000" transform="translate(241,15.5625)"/>
<path d="M0 0 C3.07340894 2.35821315 5.33136389 5.05630175 7.6875 8.125 C8.32816406 7.52171875 8.96882813 6.9184375 9.62890625 6.296875 C19.57044877 -2.88905102 26.25691768 -6.42765135 39.921875 -6.1484375 C48.68547332 -5.51207663 54.71574085 -1.09105838 60.6875 5.125 C63.83782457 9.21190755 65.78605949 13.37139872 67.6875 18.125 C68.52667969 17.691875 68.52667969 17.691875 69.3828125 17.25 C77.41281228 13.53192936 85.64479897 12.59851798 94.30078125 14.78515625 C103.54990137 18.47521972 109.64648686 25.17580351 113.6875 34.125 C116.31448728 42.00596184 115.70725257 51.07496957 112.25 58.5625 C106.53717622 68.49035386 96.86266947 74.29194668 87.68554688 80.71826172 C84.10245686 83.24096024 80.55168027 85.80835606 77 88.375 C76.24460937 88.9205957 75.48921875 89.46619141 74.7109375 90.02832031 C65.99337068 96.33534782 57.34038647 102.729695 48.6875 109.125 C37.14433849 117.65649279 25.58310358 126.15961118 13.91796875 134.52392578 C12.40331556 135.61117355 10.89035008 136.70077559 9.37890625 137.79248047 C7.11085883 139.42993039 4.83738543 141.05956808 2.5625 142.6875 C1.88815918 143.17621582 1.21381836 143.66493164 0.51904297 144.16845703 C-11.82846992 152.95566295 -24.9978079 155.42218276 -39.76171875 157.7890625 C-41.22906508 158.028534 -42.69633362 158.26848261 -44.16352844 158.50888062 C-47.21791373 159.00814951 -50.27287107 159.50368151 -53.32836914 159.99609375 C-57.22582711 160.6242125 -61.1222097 161.25871353 -65.01823711 161.89563942 C-68.7657229 162.50804872 -72.51368901 163.11749252 -76.26171875 163.7265625 C-77.31756951 163.8984503 -77.31756951 163.8984503 -78.3947506 164.07381058 C-118.24500329 170.54932989 -145.01235389 160.77921059 -178.93530273 139.75292969 C-183.91080604 136.67542045 -187.41916952 135.64053267 -193.3125 136.125 C-196.53763988 137.65957162 -199.34135689 139.37836775 -202.30712891 141.34130859 C-205.6056055 143.5059592 -208.62632372 145.33426714 -212.36328125 146.63671875 C-216.67429279 148.33172028 -220.05587251 149.9096465 -222.3125 154.125 C-223.53019318 160.5984078 -223.48790796 167.11905096 -223.23193359 173.67822266 C-222.93321116 181.94673196 -223.31001419 188.25455501 -228.3125 195.125 C-233.56709674 200.75947814 -239.43597072 205.09935311 -247.35188293 205.51940918 C-248.84876537 205.54304521 -250.34595958 205.55066976 -251.84301758 205.54492188 C-252.66678391 205.55339142 -253.49055023 205.56186096 -254.33927917 205.57058716 C-257.04535639 205.59386409 -259.75086175 205.59498142 -262.45703125 205.59375 C-264.35121382 205.60085809 -266.24539426 205.60855804 -268.13957214 205.61682129 C-272.10458361 205.63024542 -276.06939604 205.63184457 -280.03442383 205.62597656 C-285.09494794 205.62008786 -290.15451022 205.65064737 -295.21484852 205.69109344 C-299.12616548 205.71705011 -303.03725343 205.71984055 -306.94864464 205.71620178 C-308.81322327 205.71788613 -310.67781327 205.72746211 -312.5423069 205.74534607 C-333.13463804 205.92111519 -333.13463804 205.92111519 -341.4334259 198.13513184 C-348.94825137 190.33669589 -349.75546127 183.1632707 -349.70068359 172.70727539 C-349.70594055 171.47064651 -349.71119751 170.23401764 -349.71661377 168.95991516 C-349.72752311 165.58367175 -349.72501101 162.20798297 -349.71547651 158.83177114 C-349.70785021 155.28810364 -349.7149339 151.74445889 -349.71963501 148.20079041 C-349.72508466 142.25010962 -349.71792253 136.29954073 -349.70361328 130.34887695 C-349.68729572 123.4840688 -349.69257182 116.61952812 -349.7090925 109.75472647 C-349.72273896 103.84620577 -349.72461142 97.93776525 -349.71677649 92.02923387 C-349.71211631 88.50676529 -349.71142908 84.98442211 -349.72138596 81.46196175 C-349.73171994 77.53190981 -349.71736668 73.60215351 -349.70068359 69.67211914 C-349.70675629 68.51498413 -349.71282898 67.35784912 -349.71908569 66.16564941 C-349.64405982 56.60596816 -347.8315807 50.00705513 -341.21484375 42.88671875 C-334.88113233 37.02120776 -328.65576687 35.97771498 -320.2902832 35.94799805 C-319.08214211 35.93814125 -319.08214211 35.93814125 -317.84959412 35.92808533 C-315.1874888 35.90839674 -312.52543983 35.89669861 -309.86328125 35.88671875 C-308.95144766 35.88264322 -308.03961407 35.8785677 -307.10014915 35.87436867 C-302.27225345 35.85352519 -297.44438601 35.83921696 -292.61645508 35.82983398 C-287.64448541 35.81878314 -282.67296493 35.78439358 -277.70115376 35.74466228 C-273.86540427 35.71844243 -270.02976088 35.71013731 -266.19392967 35.70655251 C-264.36201131 35.70169914 -262.53009728 35.690121 -260.69826698 35.67151451 C-249.03957344 35.56046931 -239.22109203 35.50378191 -230.3125 44.125 C-230.3125 44.785 -230.3125 45.445 -230.3125 46.125 C-229.32668945 45.7125 -228.34087891 45.3 -227.32519531 44.875 C-217.038167 40.57227002 -206.74447881 36.28576567 -196.44567871 32.0112915 C-194.56492165 31.22987596 -192.68521085 30.44594325 -190.80566406 29.66162109 C-188.10333985 28.53587367 -185.39674178 27.4214699 -182.6875 26.3125 C-181.95821289 26.00634766 -181.22892578 25.70019531 -180.47753906 25.38476562 C-164.38883642 18.8706925 -144.21539007 18.69992122 -128.21875 25.42578125 C-119.33532133 29.68771191 -110.82502038 34.739253 -102.30712891 39.68115234 C-95.6497827 43.89531955 -95.6497827 43.89531955 -88.3125 46.125 C-85.70968206 44.43862335 -83.8227291 42.9313868 -81.625 40.8125 C-80.38251985 39.67988125 -79.13902039 38.54837972 -77.89453125 37.41796875 C-77.28561035 36.85384277 -76.67668945 36.2897168 -76.04931641 35.70849609 C-73.71517026 33.58040052 -71.27675149 31.60005194 -68.8125 29.625 C-64.58455776 26.19290571 -60.43758131 22.67908761 -56.3125 19.125 C-18.53382441 -13.36640125 -18.53382441 -13.36640125 0 0 Z M23 19.25 C21.69869141 20.44109375 21.69869141 20.44109375 20.37109375 21.65625 C19.48550781 22.4709375 18.59992188 23.285625 17.6875 24.125 C15.98132241 25.66905211 14.27303775 27.21077959 12.5625 28.75 C11.73363281 29.49636719 10.90476562 30.24273437 10.05078125 31.01171875 C7.96373571 32.87798592 5.86258925 34.7252788 3.75 36.5625 C0.47653731 39.41101013 -2.73393363 42.32312492 -5.9375 45.25 C-9.65612403 48.64279188 -13.40281898 51.95498836 -17.3125 55.125 C-16.71501953 55.88683594 -16.71501953 55.88683594 -16.10546875 56.6640625 C-13.02683825 60.66403498 -10.39654386 64.49379143 -8.3125 69.125 C-4.53774075 67.75035462 -1.40091015 66.01451354 1.93359375 63.78125 C2.9292334 63.11665771 3.92487305 62.45206543 4.95068359 61.76733398 C5.99820801 61.06036377 7.04573242 60.35339355 8.125 59.625 C9.20088379 58.90320557 10.27676758 58.18141113 11.38525391 57.43774414 C18.25636133 52.81166737 25.05662378 48.10522342 31.76171875 43.2421875 C35.36658816 40.63359041 39.02668424 38.1097933 42.69921875 35.59765625 C45.83311834 33.27647718 47.43590523 31.8797843 48.6875 28.125 C49.22673825 22.40907456 48.32184458 19.56697671 44.6875 15.125 C42.00943804 12.2556479 40.76240237 12.13213356 36.75 11.75 C30.93826169 11.68067509 27.06312122 15.50252621 23 19.25 Z M-27.5625 19.0625 C-28.88820856 20.2694543 -30.21503756 21.47517904 -31.54296875 22.6796875 C-32.18669434 23.27233398 -32.83041992 23.86498047 -33.49365234 24.47558594 C-35.8808413 26.64039783 -38.36258891 28.67012695 -40.875 30.6875 C-45.24349282 34.22827839 -49.54086635 37.84354312 -53.8125 41.5 C-54.41263916 42.01248291 -55.01277832 42.52496582 -55.63110352 43.05297852 C-58.28395402 45.33068608 -60.86201773 47.63173442 -63.3125 50.125 C-59.29242472 50.32948678 -55.27369536 50.45302689 -51.25 50.5625 C-50.11626953 50.62115234 -48.98253906 50.67980469 -47.81445312 50.74023438 C-41.63122595 50.96960844 -41.63122595 50.96960844 -36.07592773 48.65429688 C-34.33006623 46.89704578 -32.81571643 45.09087091 -31.3125 43.125 C-30.05834496 41.98143649 -28.79111038 40.8516698 -27.5 39.75 C-23.47387686 36.28109858 -19.53821545 32.71912299 -15.609375 29.140625 C-13.3125 27.125 -13.3125 27.125 -11.046875 25.57421875 C-8.92245521 24.12654736 -8.92245521 24.12654736 -8.8125 20.6875 C-9.05600186 17.1518972 -9.05600186 17.1518972 -10.875 14.6875 C-17.80179162 10.24724896 -22.52126834 14.25934304 -27.5625 19.0625 Z M43.73144531 56.52490234 C36.05736864 61.91237607 28.25667684 67.09912382 20.44018555 72.27685547 C12.30614404 77.67841385 4.30912622 83.25125405 -3.62353516 88.94335938 C-5.23981635 90.07414876 -6.90062188 91.14048178 -8.5625 92.203125 C-11.15516729 94.01504589 -12.77517988 95.63995456 -14.6875 98.125 C-20.67423518 105.09232111 -27.52913549 106.56815854 -36.26708984 108.4831543 C-42.05238764 109.76498993 -47.6612369 111.41255652 -53.3125 113.1875 C-83.25483786 122.40515559 -117.76595155 123.84853524 -146.3125 109.125 C-148.76746436 107.55568734 -149.64439184 106.62716223 -151.3125 104.125 C-151.93741523 100.16720351 -151.92256839 98.11636114 -149.8125 94.6875 C-146.23179655 92.44956034 -143.34576584 92.34861278 -139.3125 93.125 C-136.27990208 94.23314596 -133.35508095 95.50209145 -130.40625 96.81640625 C-106.3914796 106.97416898 -78.65719292 102.84746017 -54.53515625 95.38671875 C-49.05143271 93.70833997 -43.48164608 92.41801754 -37.8984375 91.1171875 C-30.91883153 89.24024188 -30.91883153 89.24024188 -25.375 84.875 C-23.98899334 81.28768865 -23.77614858 78.9465039 -24.3125 75.125 C-26.10599379 72.15577139 -28.16154142 69.70047929 -31.3125 68.125 C-32.7906497 68.01704115 -34.27338582 67.96877449 -35.75537109 67.95141602 C-36.67748383 67.93792618 -37.59959656 67.92443634 -38.5496521 67.91053772 C-39.55162628 67.90009933 -40.55360046 67.88966095 -41.5859375 67.87890625 C-43.71224312 67.84593024 -45.8385451 67.81271931 -47.96484375 67.77929688 C-51.31295926 67.7321644 -54.66106425 67.68781281 -58.00927734 67.64819336 C-61.24333191 67.60803818 -64.47706551 67.55656374 -67.7109375 67.50390625 C-68.69266937 67.4954921 -69.67440125 67.48707794 -70.68588257 67.47840881 C-89.61645621 67.14804888 -103.52713448 60.93271703 -119.47167969 51.29003906 C-136.23803252 41.19719021 -150.02114227 36.29700735 -169.56811523 41.01245117 C-176.88195345 43.18557243 -183.78471765 46.35038388 -190.75 49.4375 C-192.25801179 50.09673747 -193.76647412 50.75494533 -195.27539062 51.41210938 C-198.21603436 52.69408002 -201.15369564 53.98253986 -204.08935547 55.27587891 C-206.88324839 56.50400875 -209.68365786 57.71458517 -212.49267578 58.90771484 C-213.14438248 59.18455612 -213.79608917 59.4613974 -214.46754456 59.74662781 C-216.2340779 60.49486145 -218.00188399 61.2400882 -219.76977539 61.98510742 C-222.19918206 62.89302211 -222.19918206 62.89302211 -223.3125 64.125 C-223.4067174 66.24181317 -223.42992761 68.36180758 -223.42602539 70.48071289 C-223.42617142 71.14410172 -223.42631744 71.80749054 -223.4264679 72.49098206 C-223.42576881 74.69323956 -223.41797665 76.89541345 -223.41015625 79.09765625 C-223.40829206 80.62080336 -223.40686816 82.14395107 -223.40586853 83.667099 C-223.40204346 87.68337651 -223.39221328 91.69961808 -223.38116455 95.71588135 C-223.37095019 99.81123366 -223.36637086 103.90659176 -223.36132812 108.00195312 C-223.350591 116.04298528 -223.33351472 124.08398817 -223.3125 132.125 C-221.58889253 131.19446811 -219.86647098 130.26173942 -218.14453125 129.328125 C-217.18522705 128.80895508 -216.22592285 128.28978516 -215.23754883 127.75488281 C-211.65067792 125.75622242 -208.17014155 123.61403677 -204.69921875 121.421875 C-199.92020073 118.8250927 -195.54309931 117.81730558 -190.125 117.75 C-189.10019531 117.72164063 -188.07539063 117.69328125 -187.01953125 117.6640625 C-177.03713145 118.90528819 -168.46076964 123.9912926 -159.875 128.9375 C-158.31168945 129.82405273 -158.31168945 129.82405273 -156.71679688 130.72851562 C-152.49730976 133.1273189 -148.2897532 135.53992064 -144.12524414 138.03320312 C-138.70943396 141.2668265 -133.65011723 144.11104433 -127.625 146 C-126.44550781 146.38929688 -125.26601562 146.77859375 -124.05078125 147.1796875 C-107.14271231 151.05690591 -90.92908102 147.78600065 -74.125 144.9375 C-71.64284448 144.53157108 -69.16042301 144.12726488 -66.67773438 143.72460938 C-59.54962402 142.56106479 -52.43002821 141.35143721 -45.3125 140.125 C-44.22341339 139.93893188 -43.13432678 139.75286377 -42.01223755 139.56115723 C-38.97287988 139.03945361 -35.93538935 138.50816732 -32.8984375 137.97265625 C-32.01190994 137.82037064 -31.12538239 137.66808502 -30.21199036 137.51118469 C-16.10465488 134.97628565 -5.9706524 126.47625898 5.1953125 118.00830078 C9.18772428 114.99130779 13.21886418 112.02743713 17.25 109.0625 C18.42864624 108.19334961 18.42864624 108.19334961 19.63110352 107.30664062 C25.69880639 102.83655599 31.80462587 98.42104297 37.92041016 94.01708984 C45.74438718 88.3763896 53.50399052 82.64943898 61.26123047 76.91748047 C64.58090982 74.4649663 67.9022698 72.01474 71.22485352 69.56616211 C72.84763741 68.36938513 74.46924958 67.17101746 76.08959961 65.97094727 C79.43684542 63.49569973 82.78592491 61.03527456 86.21875 58.6796875 C87.68828125 57.66261719 87.68828125 57.66261719 89.1875 56.625 C90.0021875 56.0784375 90.816875 55.531875 91.65625 54.96875 C94.98680269 51.94563294 96.48213465 48.53321951 97.125 44.125 C96.41378836 39.24812017 94.13576166 36.26836447 90.3125 33.25 C76.57852512 27.36401077 54.596429 48.86801679 43.73144531 56.52490234 Z M-300.3125 71.125 C-304.82717713 78.00273127 -306.36555312 85.18578039 -304.921875 93.328125 C-302.93551667 100.61143887 -298.42500597 106.07838843 -292.3984375 110.54296875 C-286.48035444 113.91603255 -279.57858771 114.84060181 -272.890625 113.71875 C-265.13888278 111.47341777 -259.33945987 107.13418981 -254.875 100.4375 C-251.54651824 94.38075451 -250.46810141 88.4559476 -251.796875 81.640625 C-254.1568836 73.82637429 -258.51100342 67.66379398 -265.3125 63.125 C-278.48378762 56.79993922 -290.78737872 60.41639672 -300.3125 71.125 Z " fill="#000000" transform="translate(373.3125,292.875)"/>
<path d="M0 0 C2.9375 1.9375 2.9375 1.9375 5 5 C5.70184584 8.4749928 5.70742659 11.52562263 5 15 C2.63095184 18.41421647 1.02503506 19.64346607 -2.875 21 C-7.0039302 21 -9.43947884 20.08256898 -13 18 C-15.47814609 14.59254913 -16 12.64943093 -16 8.4375 C-14.80815947 4.34054818 -13.28920817 2.66269233 -10 0 C-6.1544104 -1.2818632 -3.93271581 -0.94927623 0 0 Z " fill="#000000" transform="translate(100,370)"/>
</svg>
