<?xml version="1.0" encoding="UTF-8"?>
<svg version="1.1" xmlns="http://www.w3.org/2000/svg" width="512" height="512">
<path d="M0 0 C2.4746444 0.00197659 4.94929291 0.00086214 7.42393494 -0.00309753 C12.73280999 -0.00468609 18.04093714 0.01502826 23.349617 0.05456734 C31.02474023 0.11169418 38.699573 0.12971145 46.37488577 0.13848328 C58.83033062 0.15376678 71.28545279 0.20025029 83.74072266 0.26660156 C95.83282874 0.33095082 107.92484688 0.3804525 120.01708984 0.41015625 C120.76367305 0.41199531 121.51025626 0.41383438 122.2794632 0.41572917 C126.02521692 0.42486508 129.77097126 0.43371088 133.51672602 0.4424125 C164.54361181 0.5148645 195.57009653 0.63857898 226.59667969 0.79467773 C223.7032538 32.60885479 220.80752426 64.42282112 217.90861813 96.23649925 C217.56568937 99.99994977 217.22278007 103.76340207 216.87988281 107.52685547 C216.81162329 108.27603111 216.74336377 109.02520676 216.67303579 109.7970847 C215.57059836 121.89729094 214.46973437 133.99763984 213.3694609 146.09804302 C212.23884007 158.53180311 211.10650738 170.96540647 209.97261465 183.39886862 C209.27407318 191.05916491 208.57683696 198.71957762 207.88131748 206.3801489 C207.34613312 212.27316545 206.8085569 218.16596234 206.27012825 224.0586834 C206.05087816 226.46224464 205.83238038 228.86587465 205.61472511 231.26958084 C204.66886561 241.71118404 203.72246265 252.15276239 202.55209351 262.57203674 C202.40642126 263.87003991 202.26074902 265.16804308 202.11066246 266.50537968 C200.90161712 274.24281897 197.54760463 278.34557689 191.69433594 283.34936523 C186.84406559 286.69126473 182.37942199 287.0875964 176.61505127 287.0688324 C175.81675297 287.07406908 175.01845468 287.07930575 174.19596553 287.08470112 C171.52382201 287.09969008 168.85187016 287.10040603 166.1796875 287.10107422 C164.26253944 287.1086965 162.34539444 287.11712411 160.42825317 287.126297 C155.22149354 287.14824336 150.01479264 287.15704121 144.80799198 287.16212344 C141.55367652 287.16576715 138.29937643 287.17200732 135.04506683 287.17912483 C123.68791529 287.20362077 112.33080942 287.21667134 100.97363281 287.22021484 C90.3938878 287.22384919 79.81443305 287.25373706 69.23477674 287.29561943 C60.14670229 287.3303333 51.05872397 287.34576348 41.97058368 287.34646088 C36.54487597 287.34725338 31.11946387 287.35597973 25.69382477 287.38445854 C20.58833689 287.41065745 15.48338933 287.41283402 10.37786484 287.3968029 C8.50783738 287.39498982 6.63777872 287.4016664 4.76781845 287.41762161 C-14.1533563 287.56917451 -14.1533563 287.56917451 -21.92652512 280.38735104 C-28.63317561 273.10579545 -29.11032322 264.7591868 -29.9309082 255.3503418 C-30.05923094 253.97603874 -30.18858694 252.60183183 -30.3188839 251.22771454 C-30.67255561 247.46684674 -31.01180279 243.7047977 -31.3486774 239.9423933 C-31.71381776 235.89304135 -32.09240645 231.84494525 -32.46949768 227.79669189 C-33.11953036 220.79999757 -33.76143337 213.80259604 -34.39825439 206.8046875 C-35.32174972 196.66043592 -36.26232873 186.51781973 -37.20745921 176.37556362 C-39.16572788 155.35951009 -41.10260799 134.34152161 -43.03362334 113.32294893 C-43.76375745 105.37783269 -44.49672416 97.43297938 -45.23021358 89.48817229 C-45.94960505 81.6949049 -46.66724878 73.9014779 -47.38348538 66.10791993 C-47.80600875 61.51056912 -48.22919547 56.91328197 -48.65414238 52.31615448 C-49.04776606 48.0571704 -49.43921315 43.7979919 -49.82895088 39.53865051 C-49.97167744 37.98288516 -50.11518132 36.42719088 -50.25952148 34.8715744 C-50.456124 32.75138245 -50.6499165 30.6309517 -50.84300232 28.51043701 C-50.95190009 27.3267239 -51.06079786 26.14301079 -51.17299557 24.92342758 C-51.24900273 23.89094013 -51.3250099 22.85845268 -51.40332031 21.79467773 C-51.50911706 20.41780981 -51.50911706 20.41780981 -51.61705112 19.01312637 C-51.54651996 18.28103832 -51.47598879 17.54895027 -51.40332031 16.79467773 C-49.14632616 15.04951559 -47.13821449 13.75657987 -44.65332031 12.41967773 C-43.73099609 11.89760742 -43.73099609 11.89760742 -42.79003906 11.36499023 C-41.47312018 10.62006642 -40.14439878 9.89571728 -38.80610275 9.18991947 C-36.36128774 7.84716535 -36.36128774 7.84716535 -34.20137405 6.04951382 C-23.84714694 -1.49934065 -12.27566308 -0.13742651 0 0 Z M-3.40332031 58.79467773 C-2.00421387 74.33886904 -0.60464929 89.88301889 0.79572105 105.42709637 C1.44613611 112.64684669 2.09635631 119.86661445 2.74609375 127.08642578 C3.31336897 133.38992015 3.88103427 139.69337926 4.44914019 145.99679881 C4.74905573 149.32465598 5.04873658 152.65253385 5.34806442 155.98044395 C5.99436491 163.16526048 6.64393202 170.34976245 7.29973602 177.53371811 C7.49663612 179.69602479 7.69233318 181.85844138 7.88678741 184.02096939 C8.15336645 186.9820768 8.42443814 189.94273794 8.69677734 192.90332031 C8.77381079 193.76966189 8.85084423 194.63600348 8.93021202 195.52859783 C9.23307139 198.77738349 9.56100511 201.687654 10.59667969 204.79467773 C19.17667969 204.79467773 27.75667969 204.79467773 36.59667969 204.79467773 C35.86943273 189.50708378 34.54068726 174.30603229 33.12792969 159.06811523 C32.88488724 156.42259902 32.64207482 153.7770626 32.39953613 151.13150024 C31.8940262 145.62302746 31.38608701 140.11478324 30.87646484 134.60668945 C30.28921983 128.25947453 29.70516096 121.91197292 29.122931 115.56429613 C28.55882036 109.41428946 27.99318678 103.26442401 27.42662048 97.1146431 C27.18712671 94.51440654 26.94791662 91.91414384 26.70899963 89.31385422 C26.3753833 85.68673044 26.04000611 82.05977383 25.70410156 78.43286133 C25.60640976 77.36781372 25.50871796 76.30276611 25.4080658 75.20544434 C25.3155806 74.21076141 25.2230954 73.21607849 25.12780762 72.19125366 C25.04891045 71.33708548 24.97001328 70.48291729 24.88872528 69.60286522 C24.51340554 65.99394857 24.04672489 62.39503933 23.59667969 58.79467773 C14.68667969 58.79467773 5.77667969 58.79467773 -3.40332031 58.79467773 Z M73.59667969 58.79467773 C73.59667969 106.97467773 73.59667969 155.15467773 73.59667969 204.79467773 C82.17667969 204.79467773 90.75667969 204.79467773 99.59667969 204.79467773 C99.59667969 156.61467773 99.59667969 108.43467773 99.59667969 58.79467773 C91.01667969 58.79467773 82.43667969 58.79467773 73.59667969 58.79467773 Z M144.59667969 59.79467773 C144.34175423 61.60371108 144.1499973 63.42167243 143.9828949 65.24092102 C143.87213623 66.42291077 143.76137756 67.60490051 143.64726257 68.82270813 C143.52929825 70.13128281 143.41133392 71.43985748 143.28979492 72.78808594 C143.16195181 74.17092359 143.03371798 75.55372518 142.90512085 76.93649292 C142.55603576 80.70274109 142.21258691 84.46948452 141.87020755 88.23634744 C141.51152513 92.17323688 141.14805115 96.10968399 140.78517151 100.04618835 C140.1760912 106.66121308 139.57044543 113.27654509 138.96704102 119.89208984 C138.26925892 127.54213732 137.56712307 135.19177482 136.86240047 142.84118587 C136.11285743 150.97728437 135.36610844 159.11363737 134.62039304 167.2500875 C134.40516362 169.5966563 134.18945634 171.94318079 133.97366142 174.28969765 C133.63455077 177.9789515 133.29734256 181.66837456 132.96160507 185.35793686 C132.77912507 187.35875483 132.59487138 189.35941079 132.41056824 191.36006165 C132.30262939 192.55051086 132.19469055 193.74096008 132.08348083 194.96748352 C131.98891318 196.00228002 131.89434553 197.03707651 131.79691219 198.10323048 C131.6313568 200.32856147 131.59667969 202.56319692 131.59667969 204.79467773 C140.50667969 204.79467773 149.41667969 204.79467773 158.59667969 204.79467773 C160.29409246 186.49713759 161.98960793 168.19942488 163.68164825 149.90138721 C164.46734949 141.40533389 165.2539072 132.90936149 166.04248047 124.41357422 C166.72978477 117.00879646 167.41548285 109.60387202 168.09925127 102.19876689 C168.46136741 98.27771861 168.82428831 94.35674858 169.18913269 90.43595314 C169.53255546 86.7450897 169.87382912 83.05403382 170.21346092 79.36281967 C170.39799684 77.3633447 170.58480607 75.36407994 170.77168274 73.36482239 C170.88106674 72.17155334 170.99045074 70.9782843 171.10314941 69.74885559 C171.24694912 68.19609531 171.24694912 68.19609531 171.39365387 66.61196613 C171.58234589 63.99358076 171.63471606 61.41858878 171.59667969 58.79467773 C167.28419359 58.76581237 162.97173207 58.74792519 158.65917969 58.73217773 C157.42748047 58.72379883 156.19578125 58.71541992 154.92675781 58.70678711 C153.75693359 58.70356445 152.58710938 58.7003418 151.38183594 58.69702148 C150.29781494 58.69178467 149.21379395 58.68654785 148.09692383 58.68115234 C145.65618021 58.51040877 145.65618021 58.51040877 144.59667969 59.79467773 Z " fill="#000000" transform="translate(101.4033203125,208.205322265625)"/>
<path d="M0 0 C3.95502967 3.47270898 6.27070674 8.14038145 8.79199219 12.69726562 C10.02531828 14.86971038 11.32860202 16.98844078 12.6484375 19.109375 C13.57308681 20.61447882 14.49756797 22.11968595 15.421875 23.625 C15.86772949 24.33422607 16.31358398 25.04345215 16.77294922 25.77416992 C17.18303223 26.45584229 17.59311523 27.13751465 18.015625 27.83984375 C18.56766602 28.7369104 18.56766602 28.7369104 19.13085938 29.65209961 C20.19167982 32.38174778 20.04705277 34.78814678 19.921875 37.6875 C-90.578125 101.4375 -90.578125 101.4375 -93.82861328 103.31274414 C-95.99369571 104.56185518 -98.15873482 105.81104129 -100.32373047 107.06030273 C-105.76428206 110.19952309 -111.20559716 113.33740563 -116.6484375 116.47265625 C-127.10018699 122.49497329 -137.54112048 128.53419337 -147.953125 134.625 C-157.22312277 140.04671178 -166.53644252 145.38954915 -175.86657715 150.70672607 C-184.9806893 155.90210038 -194.05944956 161.15519762 -203.11425781 166.45336914 C-211.72260705 171.48831932 -220.35786328 176.47562122 -229.00048828 181.45141602 C-230.01095215 182.03334717 -231.02141602 182.61527832 -232.0625 183.21484375 C-233.05056641 183.78058105 -234.03863281 184.34631836 -235.05664062 184.92919922 C-237.16400584 186.1555441 -239.25545636 187.4094718 -241.33398438 188.68408203 C-242.38908203 189.32587402 -243.44417969 189.96766602 -244.53125 190.62890625 C-245.47645508 191.21486572 -246.42166016 191.8008252 -247.39550781 192.40454102 C-250.28973931 193.78870433 -251.91998105 194.22618903 -255.078125 193.6875 C-256.43676758 192.34912109 -256.43676758 192.34912109 -257.47265625 190.4609375 C-257.86727051 189.76564941 -258.26188477 189.07036133 -258.66845703 188.35400391 C-259.07177246 187.59780762 -259.47508789 186.84161133 -259.890625 186.0625 C-260.75871043 184.49456784 -261.62720601 182.9268627 -262.49609375 181.359375 C-262.92583496 180.57111328 -263.35557617 179.78285156 -263.79833984 178.97070312 C-264.97257257 176.87581102 -266.20950287 174.85026482 -267.50390625 172.828125 C-271.30832252 166.82218919 -274.34323165 161.58455995 -273.73046875 154.28515625 C-271.42916548 145.12128396 -265.24859225 138.97335418 -257.49536133 134.04614258 C-254.44007144 132.24068503 -251.35975655 130.48804018 -248.265625 128.75 C-246.53172813 127.76298225 -244.79783785 126.77595272 -243.06434631 125.78822327 C-241.26879931 124.76635163 -239.47146377 123.74768431 -237.67382812 122.72949219 C-230.84481188 118.85706977 -224.05203699 114.9212808 -217.25708008 110.98950195 C-212.40526408 108.18212669 -207.54988314 105.38366836 -202.66796875 102.62890625 C-201.09630023 101.73186532 -199.52468167 100.83473686 -197.953125 99.9375 C-197.24212646 99.54328857 -196.53112793 99.14907715 -195.79858398 98.74291992 C-193.69138172 97.5670578 -193.69138172 97.5670578 -191.078125 95.6875 C-191.078125 91.64162256 -192.99627402 89.05653684 -195.015625 85.6875 C-199.11809553 78.77210926 -200.90507824 73.77189366 -200.078125 65.6875 C-196.14356757 55.13573236 -183.79644076 50.22924628 -174.453125 45.125 C-164.60052236 39.67901233 -154.83886245 34.09969463 -145.13427734 28.39428711 C-142.4524667 26.81912583 -139.7667883 25.25093155 -137.078125 23.6875 C-136.24547119 23.20039551 -135.41281738 22.71329102 -134.55493164 22.21142578 C-133.76981201 21.76138184 -132.98469238 21.31133789 -132.17578125 20.84765625 C-131.49265869 20.45328369 -130.80953613 20.05891113 -130.10571289 19.65258789 C-125.13954134 17.28879787 -120.11558084 17.09815982 -114.890625 18.6875 C-106.48548105 22.4249652 -102.07763948 31.88963005 -98.078125 39.6875 C-98.078125 40.3475 -98.078125 41.0075 -98.078125 41.6875 C-86.52883105 35.46406296 -75.04981844 29.16408834 -63.76953125 22.46484375 C-57.79125873 18.91611569 -51.78023452 15.42418701 -45.765625 11.9375 C-44.6921582 11.31125732 -43.61869141 10.68501465 -42.51269531 10.03979492 C-12.6157417 -7.26666722 -12.6157417 -7.26666722 0 0 Z M-126.51171875 37.22265625 C-127.45837402 37.77759766 -128.4050293 38.33253906 -129.38037109 38.90429688 C-130.41500488 39.51337891 -131.44963867 40.12246094 -132.515625 40.75 C-134.70407726 42.03314891 -136.89289236 43.31567913 -139.08203125 44.59765625 C-139.65070923 44.93084869 -140.21938721 45.26404114 -140.80529785 45.60733032 C-148.23652337 49.95745222 -155.70329469 54.24598458 -163.16967773 58.53540039 C-166.14291549 60.24638131 -169.11170176 61.96473533 -172.078125 63.6875 C-173.53460449 64.52861328 -173.53460449 64.52861328 -175.02050781 65.38671875 C-175.92897461 65.91910156 -176.83744141 66.45148438 -177.7734375 67 C-178.58055176 67.47050781 -179.38766602 67.94101563 -180.21923828 68.42578125 C-182.21902677 69.56188745 -182.21902677 69.56188745 -183.078125 71.6875 C-181.83530488 74.13788293 -180.54930161 76.460825 -179.140625 78.8125 C-178.75455078 79.47121094 -178.36847656 80.12992188 -177.97070312 80.80859375 C-177.01365922 82.439113 -176.04679685 84.06386184 -175.078125 85.6875 C-171.48050539 85.6875 -170.0291141 84.74036331 -166.9140625 82.9765625 C-165.8828125 82.39616211 -164.8515625 81.81576172 -163.7890625 81.21777344 C-162.68820313 80.5890332 -161.58734375 79.96029297 -160.453125 79.3125 C-158.75929688 78.3539209 -158.75929688 78.3539209 -157.03125 77.37597656 C-149.34826958 73.01601643 -141.69950699 68.60043851 -134.11328125 64.07421875 C-131.18416619 62.32898166 -128.23053412 60.63382384 -125.26171875 58.95703125 C-124.46830078 58.50424805 -123.67488281 58.05146484 -122.85742188 57.58496094 C-121.3286 56.71344321 -119.79490833 55.8503978 -118.25585938 54.99707031 C-116.47940857 53.97725596 -114.77031602 52.84174794 -113.078125 51.6875 C-113.078125 47.59290797 -115.04739776 44.91999165 -117.078125 41.5 C-117.4596875 40.84580078 -117.84125 40.19160156 -118.234375 39.51757812 C-119.17651432 37.90416455 -120.12656766 36.29537702 -121.078125 34.6875 C-123.04559825 34.6875 -124.87522721 36.25996771 -126.51171875 37.22265625 Z " fill="#000000" transform="translate(289.078125,21.3125)"/>
<path d="M0 0 C0.17196899 0.912052 0.17196899 0.912052 0.34741211 1.8425293 C8.02033264 41.48531803 29.76728883 89.76776311 63.65771484 114.19482422 C65.09039671 115.15232417 66.54341585 116.0792687 68 117 C65.75853962 122.8627102 59.95098014 124.89371249 54.75 127.8125 C53.71230469 128.42287109 52.67460937 129.03324219 51.60546875 129.66210938 C50.59613281 130.23380859 49.58679688 130.80550781 48.546875 131.39453125 C47.62745117 131.91893799 46.70802734 132.44334473 45.76074219 132.98364258 C42.37765514 134.22911405 40.44910927 133.92561855 37 133 C12.09467268 118.88943733 -4.34127292 89.14665702 -16 64 C-16.28214355 63.39172363 -16.56428711 62.78344727 -16.85498047 62.15673828 C-31.535785 30.10465768 -31.535785 30.10465768 -28 17 C-23.8611525 11.73949005 -18.07924244 8.9051468 -12.3125 5.6875 C-11.35021484 5.13771484 -10.38792969 4.58792969 -9.39648438 4.02148438 C-2.27770769 0 -2.27770769 0 0 0 Z " fill="#000000" transform="translate(409,27)"/>
<path d="M0 0 C0.22042969 1.63582031 0.22042969 1.63582031 0.4453125 3.3046875 C5.27197142 36.76127196 22.09741208 67.79327184 43 94 C43.49258301 94.62567871 43.98516602 95.25135742 44.49267578 95.89599609 C50.33492877 103.2609742 56.29375007 109.52816587 63.98803711 114.98193359 C65.35317367 115.94987474 66.68087644 116.97023258 68 118 C68 118.66 68 119.32 68 120 C64.55888398 122.01043671 61.10835257 124.0035272 57.6484375 125.98144531 C56.47421432 126.65584772 55.30260921 127.33483095 54.13378906 128.01855469 C52.44781328 129.003716 50.75132302 129.97081232 49.0546875 130.9375 C48.03874512 131.52402344 47.02280273 132.11054688 45.97607422 132.71484375 C42.68963323 134.13402548 40.54194602 134.34934603 37 134 C7.15191619 118.57697797 -13.38868251 77.33498187 -24 47 C-31.32026992 23.67394398 -31.32026992 23.67394398 -27 15 C-24.4892628 12.94418823 -21.73187756 11.46068217 -18.875 9.9375 C-17.39261506 9.11438626 -15.91084175 8.29017002 -14.4296875 7.46484375 C-13.33285645 6.86518799 -13.33285645 6.86518799 -12.21386719 6.25341797 C-9.27735786 4.59086406 -6.45385696 2.7712671 -3.63330078 0.92016602 C-2 0 -2 0 0 0 Z " fill="#000000" transform="translate(367,51)"/>
<path d="M0 0 C0.20753906 1.21171875 0.41507812 2.4234375 0.62890625 3.671875 C3.84338392 21.51330476 9.29011794 38.0081473 17.90673828 53.97412109 C19.05712613 56.10585812 20.18216642 58.25005006 21.30859375 60.39453125 C31.76382865 80.01742097 44.80880543 98.24994045 61.625 112.9140625 C63.84478627 114.86367741 65.93563588 116.88784967 68 119 C62.466476 122.9195795 56.71041381 126.48874885 50.875 129.9375 C50.20662109 130.3512085 49.53824219 130.76491699 48.84960938 131.19116211 C45.31374276 133.23996167 43.45200736 134.00944634 39.26171875 133.921875 C18.65864185 128.09872991 1.80510715 98.342029 -7.97363281 80.87402344 C-32.15980684 36.71296924 -32.15980684 36.71296924 -28 16 C-25.60115099 13.009745 -22.37959108 11.7066935 -19 10 C-17.55633318 9.15102548 -16.11932841 8.29066672 -14.6875 7.421875 C-11.66565664 5.59268751 -8.64386089 3.7649772 -5.59765625 1.9765625 C-4.95320557 1.59580566 -4.30875488 1.21504883 -3.64477539 0.82275391 C-2 0 -2 0 0 0 Z " fill="#000000" transform="translate(324,76)"/>
<path d="M0 0 C10.98105343 0.89533769 21.93719908 15.21281603 28.81640625 23.2578125 C39.79020191 37.05845792 48.89795661 52.26246207 56.2578125 68.265625 C56.80050781 69.43480469 57.34320313 70.60398437 57.90234375 71.80859375 C63.5483271 84.45845518 68.4123424 97.59571875 68.3828125 111.578125 C68.38667969 113.42857422 68.38667969 113.42857422 68.390625 115.31640625 C68.2578125 118.265625 68.2578125 118.265625 67.2578125 119.265625 C60.1993206 119.265625 56.43386771 115.73300021 51.2578125 111.265625 C50.58621094 110.72679688 49.91460937 110.18796875 49.22265625 109.6328125 C43.40172296 104.84182565 38.85338882 99.21372052 34.2578125 93.265625 C33.84160645 92.74033203 33.42540039 92.21503906 32.99658203 91.67382812 C15.35136953 69.33340854 -3.933868 36.98840448 -3.8671875 7.515625 C-3.86976563 6.36578125 -3.87234375 5.2159375 -3.875 4.03125 C-3.69706546 0.32602478 -3.68282592 0.35674097 0 0 Z " fill="#000000" transform="translate(427.7421875,16.734375)"/>
<path d="M0 0 C5.2820497 3.27912481 7.77073064 8.10707358 10.75 13.375 C11.49056641 14.63183594 11.49056641 14.63183594 12.24609375 15.9140625 C14.71372534 20.21382604 16.81502294 23.92854547 17 29 C15.39588152 32.52906067 14.25840638 33.82772908 11 36 C7.08299846 36.51091324 5.47061027 36.30691974 2.125 34.125 C1.42375 33.42375 0.7225 32.7225 0 32 C0 31.34 0 30.68 0 30 C-3.57198984 32.03019998 -7.14263672 34.06273906 -10.71209717 36.09738159 C-11.98534918 36.82297801 -13.25882677 37.54817873 -14.53253174 38.27297974 C-21.24285089 42.09295104 -27.93403434 45.93454065 -34.546875 49.921875 C-35.53606934 50.51718018 -36.52526367 51.11248535 -37.54443359 51.72583008 C-39.39091915 52.84241713 -41.232655 53.96690803 -43.06884766 55.1003418 C-47.35044555 57.68715783 -50.8691815 59.78946489 -56 60 C-59.84624466 58.95102418 -60.73691641 58.39462539 -63 55 C-63.72727273 49.36363636 -63.72727273 49.36363636 -63 47 C-57.86583155 41.77776691 -51.26343924 38.51593469 -44.9375 34.9375 C-43.20232729 33.94655084 -41.46715525 32.95560051 -39.73205566 31.96452332 C-37.97249126 30.96084339 -36.21136113 29.95996788 -34.44970703 28.95996094 C-31.1699832 27.09657644 -27.89461659 25.22581479 -24.62109375 23.3515625 C-19.75017575 20.56281971 -14.87636851 17.77920004 -10 15 C-10.495 13.515 -10.495 13.515 -11 12 C-11.49542576 6.79802956 -11.49542576 6.79802956 -11 4 C-7.72794548 0.1505241 -4.96702569 -0.82783761 0 0 Z " fill="#000000" transform="translate(247,120)"/>
</svg>
